<svg xmlns="http://www.w3.org/2000/svg" version="1.1" xmlns:xlink="http://www.w3.org/1999/xlink" xmlns:svgjs="http://svgjs.dev/svgjs" width="1000" height="750" viewBox="0 0 1000 750"><rect width="1000" height="750" fill="#0080ff"></rect><g transform="matrix(0.6293103448275862,0,0,0.6293103448275862,184.81494974868542,83.23644123549133)"><svg viewBox="0 0 266 247" data-background-color="#0080ff" preserveAspectRatio="xMidYMid meet" height="928" width="1000" xmlns="http://www.w3.org/2000/svg" xmlns:xlink="http://www.w3.org/1999/xlink"><g id="tight-bounds" transform="matrix(1,0,0,1,0.22397137745977602,-0.09999831307132467)"><svg viewBox="0 0 265.55205724508045 247.2" height="247.2" width="265.55205724508045"><g><svg viewBox="0 0 265.5520572450805 247.20000000000002" height="247.2" width="265.55205724508045"><g><svg viewBox="0 0 265.5520572450805 247.20000000000002" height="247.20000000000002" width="265.5520572450805"><g id="textblocktransform"><svg viewBox="0 0 265.5520572450805 247.20000000000002" height="247.20000000000002" width="265.5520572450805" id="textblock"><g><svg viewBox="0 0 265.5520572450805 247.20000000000002" height="247.20000000000002" width="265.5520572450805"><g transform="matrix(1,0,0,1,0,0)"><svg width="265.5520572450805" viewBox="-5.900000095367432 -34.79999923706055 60.05000305175781 55.900001525878906" height="247.20000000000002" data-palette-color="#010c80"><path d="M21.95-3.8L21.95-3.8Q19.3-3.8 16.5-3L16.5-3Q10 7.15 4.23 14.13-1.55 21.1-4.15 21.1L-4.15 21.1Q-5.9 21.1-5.9 19.18-5.9 17.25-4.2 14.05-2.5 10.85 0.28 7.48 3.05 4.1 7.08 0.98 11.1-2.15 15.25-3.7L15.25-3.7Q20.4-12.5 24.1-20.3 27.8-28.1 27.8-30.35L27.8-30.35Q27.8-33.3 25.53-33.3 23.25-33.3 19.35-30.55 15.45-27.8 11.8-24 8.15-20.2 5.48-15.85 2.8-11.5 2.8-8.85 2.8-6.2 5.35-6.2L5.35-6.2Q8.05-6.2 11.43-9.4 14.8-12.6 15.35-14.85L15.35-14.85Q15.45-15.2 15.83-15.2 16.2-15.2 16.2-14.85L16.2-14.85Q16.2-12.2 11.55-8.43 6.9-4.65 3.65-4.65L3.65-4.65Q1.05-4.65 1.05-7.83 1.05-11 4.03-15.8 7-20.6 11.08-24.75 15.15-28.9 19.63-31.85 24.1-34.8 26.9-34.8L26.9-34.8Q30.25-34.8 30.25-30.45L30.25-30.45Q30.25-27.85 26.55-20.45 22.85-13.05 17.4-4.4L17.4-4.4Q20.25-5.15 21.88-5.15 23.5-5.15 24.38-4.67 25.25-4.2 25.25-3.45L25.25-3.45Q25.25-1.85 24.23-0.5 23.2 0.85 21.85 0.85L21.85 0.85Q21.65 0.85 21.65 0.7L21.65 0.7Q21.65 0.2 22.35-0.15L22.35-0.15Q23.3-1 23.3-2.4 23.3-3.8 21.95-3.8ZM-3.85 17.7L-3.85 17.7Q-3.85 18.85-2.95 18.85L-2.95 18.85Q-0.55 18.85 4.13 12.9 8.8 6.95 14.35-2.2L14.35-2.2Q9.5-0.25 5.1 3.93 0.7 8.1-1.58 11.9-3.85 15.7-3.85 17.7ZM35.7-5.95L35.7-5.95Q35.4-5.95 35.4-6.3L35.4-6.3 35.55-6.65Q36.45-7.5 36.45-8.1L36.45-8.1Q36.45-8.85 35.65-8.85L35.65-8.85Q33.9-8.85 30.92-6.43 27.95-4 27.95-2.1L27.95-2.1Q27.95-1.3 29-1.3 30.05-1.3 31.42-2.18 32.8-3.05 33.77-3.93 34.75-4.8 34.85-4.8L34.85-4.8Q35.35-4.75 35.35-4.3L35.35-4.3Q35.35-4.1 34.57-3 33.8-1.9 33.8-1.25L33.8-1.25Q33.8-0.75 34.62-0.75 35.45-0.75 37.55-1.73 39.65-2.7 41.25-3.7L41.25-3.7 42.85-4.7Q42.9-4.6 42.9-4.3 42.9-4 42.45-3.8L42.45-3.8Q35.7 0.8 33.05 0.8L33.05 0.8Q31.75 0.8 31.75-0.5L31.75-0.5Q31.75-1.05 31.95-1.65L31.95-1.65Q31.6-1.25 29.87-0.43 28.15 0.4 26.8 0.4 25.45 0.4 25.45-0.85L25.45-0.85Q25.45-3.8 29.55-6.88 33.65-9.95 36.45-9.95L36.45-9.95Q38.1-9.95 38.1-8.55L38.1-8.55Q38.1-7.75 37.1-6.85 36.1-5.95 35.7-5.95ZM54.15-9.35Q54.15-9.3 53.02-7.58 51.9-5.85 51.27-4.95 50.65-4.05 46.05 3.45L46.05 3.45Q46.45 3.4 47.35 3.4L47.35 3.4Q49.75 3.4 49.75 4.65L49.75 4.65Q49.75 5.35 48.85 6.3 47.95 7.25 47.45 7.25 46.95 7.25 46.95 6.9L46.95 6.9Q46.95 6.7 47.5 6.28 48.05 5.85 48.05 5.28 48.05 4.7 47.07 4.7 46.1 4.7 45.2 4.85L45.2 4.85Q40.65 12.3 37.35 16.5 34.05 20.7 31.7 20.7L31.7 20.7Q30 20.7 30 18.95L30 18.95Q30 15.95 34.52 10.63 39.05 5.3 44.35 3.8L44.35 3.8 49.15-4.5Q47.05-2.6 44.82-1.15 42.6 0.3 41.45 0.3 40.3 0.3 40.3-0.75L40.3-0.75Q40.3-2.35 45.55-9.6L45.55-9.6Q45.8-10 46.2-10L46.2-10Q47.35-9.65 47.35-9.5 47.35-9.35 47.05-8.9L47.05-8.9Q42.55-2.8 42.55-1.85L42.55-1.85Q42.55-1.25 43.22-1.25 43.9-1.25 46.02-2.85 48.15-4.45 49.65-6.1L49.65-6.1 52.45-9.5Q52.75-9.85 53.2-9.85L53.2-9.85Q54.15-9.7 54.15-9.35L54.15-9.35ZM34.84 11.68Q33.4 13.65 32.55 15.43 31.7 17.2 31.7 18.23 31.7 19.25 32.5 19.25L32.5 19.25Q35 19.25 43.45 5.25L43.45 5.25Q40.95 6.05 38.62 7.88 36.3 9.7 34.84 11.68Z" opacity="1" transform="matrix(1,0,0,1,0,0)" fill="#010c80" class="undefined-text-0" data-fill-palette-color="primary" id="text-0"></path></svg></g></svg></g></svg></g></svg></g><g></g></svg></g><defs></defs></svg><rect width="265.55205724508045" height="247.2" fill="none" stroke="none" visibility="hidden"></rect></g></svg></g></svg>